<svg width="15" height="15" viewBox="0 0 15 15" fill="none" xmlns="http://www.w3.org/2000/svg">
<path d="M0.240234 5.3417C0.240234 3.47194 0.240234 2.53705 0.604116 1.82289C0.924197 1.1947 1.43494 0.683963 2.06313 0.363881C2.77728 0 3.71217 0 5.58193 0H9.65854C11.5283 0 12.4632 0 13.1773 0.363881C13.8055 0.683963 14.3163 1.1947 14.6363 1.82289C15.0002 2.53705 15.0002 3.47194 15.0002 5.3417V9.4183C15.0002 11.2881 15.0002 12.223 14.6363 12.9371C14.3163 13.5653 13.8055 14.076 13.1773 14.3961C12.4632 14.76 11.5283 14.76 9.65854 14.76H5.58193C3.71217 14.76 2.77728 14.76 2.06313 14.3961C1.43494 14.076 0.924197 13.5653 0.604116 12.9371C0.240234 12.223 0.240234 11.2881 0.240234 9.4183V5.3417Z" fill="#330000"/>
<path d="M7.3927 9.27656H5.10547L4.64011 10.7593C4.6272 10.8143 4.57649 10.8533 4.5213 10.8506H3.36281C3.29675 10.8506 3.27365 10.8134 3.29351 10.7389L5.27379 4.88941C5.29361 4.82847 5.31343 4.7591 5.3332 4.68124C5.35914 4.54571 5.37237 4.40802 5.37284 4.26996C5.36715 4.22916 5.40299 4.19313 5.44211 4.19884H7.01647C7.0626 4.19884 7.08896 4.21577 7.09565 4.24962L9.34333 10.7491C9.3631 10.8168 9.34333 10.8507 9.28393 10.8506H7.9967C7.95157 10.8558 7.90845 10.8248 7.8977 10.7795L7.3927 9.27656ZM5.46193 7.99697H7.02638C6.76935 7.11864 6.47926 6.25186 6.24416 5.36674C5.9905 6.25339 5.71375 7.13646 5.46193 7.99697Z" fill="#FF9A00"/>
<path d="M10.68 5.27492C10.579 5.27908 10.4783 5.26132 10.3844 5.22283C10.2906 5.18435 10.2057 5.12595 10.1354 5.05151C10.0653 4.97381 10.0108 4.88272 9.97507 4.78336C9.93938 4.68404 9.9232 4.57846 9.92741 4.47266C9.92383 4.36791 9.9418 4.26359 9.98018 4.16647C10.0186 4.06935 10.0765 3.98162 10.1502 3.90903C10.2232 3.83718 10.3093 3.78089 10.4037 3.74342C10.498 3.70594 10.5986 3.68802 10.6997 3.69069C10.9374 3.69069 11.1239 3.76347 11.2592 3.90903C11.3275 3.98467 11.3806 4.07339 11.4154 4.1701C11.4502 4.26681 11.4661 4.36965 11.4621 4.47266C11.4663 4.57882 11.4496 4.68483 11.413 4.78425C11.3765 4.88367 11.3208 4.97455 11.2493 5.05151C11.1746 5.12705 11.0854 5.18588 10.9874 5.22436C10.8894 5.26279 10.7848 5.28003 10.68 5.27492ZM9.99673 10.7487V5.89441C9.99673 5.83348 10.023 5.80301 10.076 5.80301H11.2939C11.3466 5.80301 11.373 5.83348 11.373 5.89441V10.7487C11.373 10.8165 11.3466 10.8503 11.2939 10.8502H10.0859C10.0265 10.8502 9.99673 10.8164 9.99673 10.7487Z" fill="#FF9A00"/>
</svg>
