<svg width="11" height="15" viewBox="0 0 11 15" fill="none" xmlns="http://www.w3.org/2000/svg">
<path fill-rule="evenodd" clip-rule="evenodd" d="M5.62012 7.5C5.62012 6.11929 6.73941 5 8.12012 5C9.50083 5 10.6201 6.11929 10.6201 7.5C10.6201 8.88071 9.50083 10 8.12012 10C6.73941 10 5.62012 8.88071 5.62012 7.5Z" fill="#1ABCFE"/>
<path fill-rule="evenodd" clip-rule="evenodd" d="M0.620117 12.5C0.620117 11.1193 1.73941 10 3.12012 10H5.62012V12.5C5.62012 13.8807 4.50083 15 3.12012 15C1.73941 15 0.620117 13.8807 0.620117 12.5Z" fill="#0ACF83"/>
<path fill-rule="evenodd" clip-rule="evenodd" d="M5.62012 0L5.62012 5H8.12012C9.50083 5 10.6201 3.88071 10.6201 2.5C10.6201 1.11929 9.50083 0 8.12012 0L5.62012 0Z" fill="#FF7262"/>
<path fill-rule="evenodd" clip-rule="evenodd" d="M0.620117 2.5C0.620117 3.88071 1.73941 5 3.12012 5L5.62012 5L5.62012 0L3.12012 0C1.73941 0 0.620117 1.11929 0.620117 2.5Z" fill="#F24E1E"/>
<path fill-rule="evenodd" clip-rule="evenodd" d="M0.620117 7.5C0.620117 8.88071 1.73941 10 3.12012 10H5.62012L5.62012 5L3.12012 5C1.73941 5 0.620117 6.11929 0.620117 7.5Z" fill="#A259FF"/>
</svg>
