<svg width="21" height="17" viewBox="0 0 21 17" fill="none" xmlns="http://www.w3.org/2000/svg">
<path d="M0.75 15.3223C0.75 16.0275 1.32612 16.5986 2.03595 16.5986H2.05443C1.33373 16.5986 0.75 16.0275 0.75 15.3223Z" fill="#FBBC05"/>
<path d="M11.8004 5.42992V8.76229L16.293 5.13848V1.91992C16.293 1.21473 15.7169 0.643555 15.0071 0.643555L5.27383 0.643555L5.26514 5.42992L11.8004 5.42992Z" fill="#FBBC05"/>
<path d="M11.8008 12.096H5.25468L5.24707 16.5984H15.0075C15.7184 16.5984 16.2935 16.0272 16.2935 15.3221V12.4162L11.8008 8.76367V12.096V12.096Z" fill="#34A853"/>
<path d="M5.27421 0.643555L0.75 5.42992L5.2666 5.42992L5.27421 0.643555Z" fill="#EA4335"/>
<path d="M0.75 12.0957L0.75 15.3217C0.75 16.0269 1.33373 16.5981 2.05443 16.5981H5.24704L5.25465 12.0957H0.75V12.0957Z" fill="#1967D2"/>
<path d="M5.2666 5.42969L0.75 5.42969L0.75 12.0955H5.25465L5.2666 5.42969Z" fill="#4285F4"/>
<path d="M20.2436 14.1875V3.23205C19.9903 1.77806 18.3957 3.44478 18.3957 3.44478L16.2944 5.13915V12.4155L19.3022 14.8608C20.3882 15.0033 20.2436 14.1875 20.2436 14.1875Z" fill="#34A853"/>
<path d="M11.8008 8.76239L16.2946 12.416V5.13965L11.8008 8.76239Z" fill="#188038"/>
</svg>
