<svg width="18" height="19" viewBox="0 0 18 19" fill="none" xmlns="http://www.w3.org/2000/svg">
<path d="M3.68154 3.86687C4.23241 4.31436 4.43917 4.28039 5.47444 4.21098L15.2327 3.62541C15.4395 3.62541 15.2674 3.41865 15.1987 3.38468L13.5772 2.2128C13.267 1.97207 12.8528 1.6959 12.0597 1.76458L2.61157 2.45427C2.26746 2.48823 2.19805 2.66102 2.3354 2.79837L3.68154 3.86687ZM4.26711 6.14122L4.26711 16.4083C4.26711 16.9599 4.54255 17.1666 5.16356 17.1319L15.8877 16.5116C16.5087 16.4777 16.5781 16.0981 16.5781 15.6499V5.45153C16.5781 5.00404 16.4061 4.76258 16.0258 4.79655L4.81872 5.45153C4.4052 5.48624 4.26711 5.69373 4.26711 6.14122ZM14.8539 6.69134C14.9226 7.00148 14.8539 7.31162 14.5438 7.34706L14.0269 7.45044V15.0296C13.5779 15.2711 13.1644 15.4092 12.8195 15.4092C12.2672 15.4092 12.1291 15.2364 11.7156 14.7202L8.33583 9.41391V14.5474L9.40507 14.7896C9.40507 14.7896 9.40507 15.4099 8.54259 15.4099L6.16339 15.5473C6.09471 15.4099 6.16339 15.0651 6.40485 14.9964L7.02513 14.8243L7.02513 8.03601L6.16486 7.9666C6.09545 7.65646 6.26824 7.20898 6.75043 7.17427L9.30243 7.00222L12.8203 12.3772V7.62176L11.9231 7.51912C11.8544 7.13957 12.1299 6.86413 12.4747 6.83017L14.8539 6.69134ZM1.8185 1.52385L11.6469 0.800196C12.8535 0.696816 13.1644 0.76549 13.9227 1.31709L17.0603 3.52203C17.5772 3.90084 17.75 4.00422 17.75 4.41774L17.75 16.5116C17.75 17.2693 17.4746 17.7182 16.5094 17.7862L5.09489 18.4759C4.37123 18.5106 4.02565 18.4072 3.6461 17.9243L1.33557 14.9262C0.922053 14.3746 0.75 13.9619 0.75 13.4789L0.75 2.72896C0.75 2.10942 1.02617 1.59179 1.8185 1.52385Z" fill="black"/>
</svg>
