<svg width="15" height="15" viewBox="0 0 15 15" fill="none" xmlns="http://www.w3.org/2000/svg">
<path d="M0 5.3417C0 3.47194 0 2.53705 0.363881 1.82289C0.683963 1.1947 1.1947 0.683963 1.82289 0.363881C2.53705 0 3.47194 0 5.3417 0H9.4183C11.2881 0 12.223 0 12.9371 0.363881C13.5653 0.683963 14.076 1.1947 14.3961 1.82289C14.76 2.53705 14.76 3.47194 14.76 5.3417V9.4183C14.76 11.2881 14.76 12.223 14.3961 12.9371C14.076 13.5653 13.5653 14.076 12.9371 14.3961C12.223 14.76 11.2881 14.76 9.4183 14.76H5.3417C3.47194 14.76 2.53705 14.76 1.82289 14.3961C1.1947 14.076 0.683963 13.5653 0.363881 12.9371C0 12.223 0 11.2881 0 9.4183V5.3417Z" fill="#00005B"/>
<path d="M3.16309 10.4356V3.80005C3.16309 3.75492 3.18159 3.72912 3.22477 3.72912C3.8622 3.72912 4.49934 3.69043 5.13697 3.69043C6.17154 3.69043 7.29183 4.05101 7.6845 5.15425C7.77701 5.4251 7.82635 5.70238 7.82635 5.99257C7.82635 6.54712 7.703 7.00495 7.45624 7.36609C6.76706 8.37483 5.57244 8.35918 4.50161 8.35918V10.4291C4.50999 10.4904 4.45875 10.5194 4.40909 10.5194H3.23711C3.18776 10.5194 3.16309 10.4936 3.16309 10.4356ZM4.50777 4.97371V7.14037C4.93239 7.1721 5.37666 7.17553 5.78462 7.03721C6.23501 6.90479 6.48166 6.50743 6.48166 6.03126C6.49421 5.62552 6.27729 5.23617 5.90802 5.08978C5.50497 4.91894 4.94288 4.90871 4.50777 4.97371Z" fill="#9999FF"/>
<path d="M8.66256 5.38373H9.7451C9.80477 5.38431 9.85838 5.42738 9.87414 5.48758C9.95348 5.67171 9.96328 5.8938 9.96355 6.09258C10.1492 5.8666 10.373 5.67836 10.6239 5.53713C10.8931 5.37799 11.1981 5.29728 11.5072 5.30356C11.5586 5.29586 11.604 5.34336 11.5966 5.39697V6.6532C11.5966 6.70175 11.5634 6.72589 11.4973 6.72589C11.0391 6.69284 10.3258 6.80602 9.99285 7.18272V10.4491C9.99285 10.5114 9.96639 10.5426 9.91341 10.5426H8.75196C8.69492 10.5511 8.64458 10.4974 8.65265 10.4387V6.892C8.65265 6.41678 8.6625 5.92722 8.59308 5.45643C8.58238 5.4131 8.62202 5.37282 8.66256 5.38373Z" fill="#9999FF"/>
</svg>
