<svg width="16" height="15" viewBox="0 0 16 15" fill="none" xmlns="http://www.w3.org/2000/svg">
<path d="M0.620117 5.46181C0.620117 3.59205 0.620117 2.65717 0.983999 1.94301C1.30408 1.31482 1.81482 0.80408 2.44301 0.483999C3.15717 0.120117 4.09205 0.120117 5.96181 0.120117H10.0384C11.9082 0.120117 12.8431 0.120117 13.5572 0.483999C14.1854 0.80408 14.6961 1.31482 15.0162 1.94301C15.3801 2.65717 15.3801 3.59205 15.3801 5.46181V9.53842C15.3801 11.4082 15.3801 12.3431 15.0162 13.0572C14.6961 13.6854 14.1854 14.1961 13.5572 14.5162C12.8431 14.8801 11.9082 14.8801 10.0384 14.8801H5.96181C4.09205 14.8801 3.15717 14.8801 2.44301 14.5162C1.81482 14.1961 1.30408 13.6854 0.983999 13.0572C0.620117 12.3431 0.620117 11.4082 0.620117 9.53842V5.46181Z" fill="#001E36"/>
<path d="M3.7832 10.9347V4.44413C3.7832 4.40001 3.80165 4.37476 3.8447 4.37476C4.48024 4.37476 5.1155 4.33691 5.75119 4.33691C6.78275 4.33691 7.89966 4.68963 8.29117 5.76874C8.38342 6.03368 8.4326 6.3049 8.4326 6.58876C8.4326 7.13125 8.30962 7.57905 8.0636 7.93229C7.37642 8.919 6.18539 8.90366 5.11777 8.90366V10.9285C5.1261 10.9884 5.07502 11.0168 5.02552 11.0168H3.857C3.80781 11.0168 3.7832 10.9915 3.7832 10.9347ZM5.12389 5.59215V7.71152C5.54723 7.74252 5.99019 7.74589 6.39694 7.61063C6.84601 7.48106 7.09192 7.0924 7.09192 6.62661C7.10436 6.22973 6.88813 5.84892 6.51997 5.70569C6.11813 5.53859 5.55767 5.52857 5.12389 5.59215Z" fill="#31A8FF"/>
<path d="M12.2683 7.29311C12.0822 7.19501 11.884 7.12326 11.6791 7.07983C11.4158 7.01789 10.3775 6.80092 10.377 7.34387C10.3863 7.64698 10.8674 7.79548 11.08 7.88209C11.8264 8.13833 12.671 8.59637 12.6544 9.51713C12.6772 10.6633 11.5666 11.1216 10.6147 11.1217C10.1191 11.1268 9.60281 11.0501 9.14926 10.8373C9.10593 10.8144 9.0781 10.7654 9.07994 10.7154V9.61865C9.07504 9.57469 9.12227 9.53626 9.15917 9.56789C9.60355 9.83663 10.1303 9.96715 10.6444 9.97411C10.8713 9.97411 11.3211 9.95212 11.3177 9.61865C11.3177 9.29868 10.7797 9.15155 10.5652 9.07027C10.2543 8.9593 9.95948 8.80554 9.6889 8.61329C9.31073 8.34355 9.07351 7.91108 9.07994 7.43528C9.07773 6.35601 10.1 5.87156 11.0207 5.87135C11.451 5.86777 11.9132 5.89966 12.3139 6.07446C12.3715 6.09138 12.3834 6.15211 12.3832 6.20646V7.23217C12.3868 7.29585 12.3161 7.31752 12.2683 7.29311Z" fill="#31A8FF"/>
</svg>
