<svg width="17" height="18" viewBox="0 0 17 18" fill="none" xmlns="http://www.w3.org/2000/svg">
<path d="M1.12461 9.28613C1.12461 12.2088 2.82462 14.7261 5.28307 15.9227L1.76538 6.28499C1.34298 7.22913 1.12463 8.2518 1.12461 9.28613ZM8.5 16.6615C9.35655 16.6615 10.1804 16.5111 10.9519 16.2431L10.8996 16.145L8.63076 9.93344L6.42076 16.3608C7.07462 16.5569 7.77424 16.6615 8.5 16.6615ZM9.51345 5.82728L12.1811 13.7584L12.92 11.3C13.2339 10.28 13.4758 9.54768 13.4758 8.91344C13.4758 7.99806 13.1489 7.37037 12.8742 6.88652C12.495 6.2719 12.1485 5.75537 12.1485 5.15382C12.1485 4.47382 12.6585 3.84613 13.3908 3.84613H13.4823C12.1233 2.59854 10.3448 1.90768 8.5 1.91075C7.2785 1.91052 6.07609 2.21395 5.00096 2.79375C3.92581 3.37355 3.01167 4.21151 2.34076 5.23228L2.81155 5.24537C3.58307 5.24537 4.77307 5.14728 4.77307 5.14728C5.17846 5.12768 5.22424 5.70959 4.82538 5.75537C4.82538 5.75537 4.42654 5.80768 3.97538 5.82728L6.66924 13.8173L8.28424 8.97882L7.13345 5.82728C6.8757 5.81307 6.61841 5.79126 6.36193 5.7619C5.96307 5.73575 6.00885 5.12768 6.40769 5.14728C6.40769 5.14728 7.62385 5.24537 8.34962 5.24537C9.12115 5.24537 10.3111 5.14728 10.3111 5.14728C10.71 5.12768 10.7623 5.70959 10.3635 5.75537C10.3635 5.75537 9.96462 5.80113 9.51345 5.82728ZM12.2073 15.6611C13.3231 15.0124 14.249 14.0822 14.8927 12.9635C15.5364 11.8448 15.8752 10.5768 15.8754 9.28613C15.8754 8.00459 15.5485 6.80151 14.9731 5.74882C15.0899 6.90697 14.9146 8.07594 14.4631 9.14882L12.2073 15.6611ZM8.5 17.7861C6.24566 17.7861 4.08365 16.8906 2.4896 15.2965C0.895533 13.7025 0 11.5405 0 9.28613C0 7.0318 0.895533 4.86979 2.4896 3.27573C4.08365 1.68167 6.24566 0.786133 8.5 0.786133C10.7543 0.786133 12.9163 1.68167 14.5104 3.27573C16.1045 4.86979 17 7.0318 17 9.28613C17 11.5405 16.1045 13.7025 14.5104 15.2965C12.9163 16.8906 10.7543 17.7861 8.5 17.7861Z" fill="#126FC2"/>
</svg>
